<?xml version="1.0" encoding="UTF-8"?>
<svg width="190.46" height="204.3" version="1.1" viewBox="0 0 190.46 204.3" xmlns="http://www.w3.org/2000/svg" xmlns:cc="http://creativecommons.org/ns#" xmlns:dc="http://purl.org/dc/elements/1.1/" xmlns:rdf="http://www.w3.org/1999/02/22-rdf-syntax-ns#" xmlns:xlink="http://www.w3.org/1999/xlink">
 <metadata>
  <rdf:RDF>
   <cc:Work rdf:about="">
    <dc:format>image/svg+xml</dc:format>
    <dc:type rdf:resource="http://purl.org/dc/dcmitype/StillImage"/>
    <dc:title/>
   </cc:Work>
  </rdf:RDF>
 </metadata>
 <defs>
  <linearGradient id="linearGradient1095" x1="140.05" x2="278.58" y1="125.53" y2="230.02" gradientUnits="userSpaceOnUse">
   <stop stop-color="#de5762" offset="0"/>
   <stop stop-color="#f09460" offset="1"/>
  </linearGradient>
 </defs>
 <g transform="translate(-93.614 -88.553)">
  <path d="m103.68 288.94c-9.7395-6.1766-12.233-12.951-8.2639-22.452 5.1037-12.218 15.607-18.017 32.929-18.18l11.667-0.11016 0.0195-61.333 0.0195-61.333 16.314-6.2071c33.64-12.8 78.054-24.225 108.01-27.784 5.6985-0.67722 12.462-1.6254 15.03-2.1072l4.6688-0.87588-0.36311 82.639-0.36309 82.639-4.6667 6.8458c-2.5667 3.7652-5.2194 6.847-5.895 6.8484-0.67559 1e-3 -2.2653 0.94096-3.5326 2.0879-2.7023 2.4456-14.763 5.8762-20.738 5.8988-6.0317 0.0229-15.239-3.5537-19.393-7.533-4.3362-4.1543-5.9354-11.906-3.7946-18.392 0.84796-2.5694 4.2386-7.0392 7.5518-9.9557 7.9937-7.0364 17.027-9.971 27.984-9.0915l8.4838 0.681v-93.026h-7.1909c-8.1602 0-40.852 3.2973-54.039 5.4504-10.62 1.7341-33.469 7.1209-45.771 10.791l-9 2.6851v55.546c0 32.413-0.546 57.449-1.3111 60.117-3.2454 11.316-17.496 20.043-32.761 20.065-8.1323 0.0107-10.243-0.51822-15.593-3.911zm75.22-147.24c26.262-6.8725 45.919-10.95 69.446-14.407l21-3.0852v-18.007h-6.559c-9.7345 0-50.122 8.2287-66.774 13.605-10.679 3.4477-37.16 12.472-40.333 13.744-1.7611 0.70636-2.3333 2.4814-2.3333 7.2377 0 7.443 0.59328 8.295 4.6914 6.7368 1.6962-0.64488 11.084-3.2662 20.863-5.8251z" fill="url(#linearGradient1095)" stroke-width="1.3333" style="mix-blend-mode:normal"/>
 </g>
</svg>
